<mxfile host="app.diagrams.net" modified="2024-03-02T12:13:41.656Z" agent="Mozilla/5.0 (Windows NT 10.0; Win64; x64) AppleWebKit/537.36 (KHTML, like Gecko) Chrome/122.0.0.0 Safari/537.36" etag="2Sv3sMQL43tEJJe6Ivfk" version="23.1.2" type="device">
  <diagram name="Strona-1" id="vsWlx-wLqlWT-8yWCV16">
    <mxGraphModel dx="2963" dy="2798" grid="1" gridSize="10" guides="1" tooltips="1" connect="1" arrows="1" fold="1" page="1" pageScale="1" pageWidth="1654" pageHeight="1169" math="0" shadow="1">
      <root>
        <mxCell id="0" />
        <mxCell id="1" parent="0" />
        <mxCell id="wFDD2Cs2IcHjFSPmou3Z-42" value="" style="rounded=1;whiteSpace=wrap;html=1;sketch=1;hachureGap=4;jiggle=2;curveFitting=1;fontFamily=Architects Daughter;fontSource=https%3A%2F%2Ffonts.googleapis.com%2Fcss%3Ffamily%3DArchitects%2BDaughter;fontSize=20;" parent="1" vertex="1">
          <mxGeometry x="460" y="-707.5" width="260" height="130" as="geometry" />
        </mxCell>
        <mxCell id="wFDD2Cs2IcHjFSPmou3Z-1" value="Actor (guest)" style="shape=umlActor;verticalLabelPosition=bottom;verticalAlign=top;html=1;outlineConnect=0;sketch=1;hachureGap=4;jiggle=2;curveFitting=1;fontFamily=Architects Daughter;fontSource=https%3A%2F%2Ffonts.googleapis.com%2Fcss%3Ffamily%3DArchitects%2BDaughter;fontSize=20;" parent="1" vertex="1">
          <mxGeometry x="200" y="-685" width="40" height="85" as="geometry" />
        </mxCell>
        <mxCell id="wFDD2Cs2IcHjFSPmou3Z-4" value="" style="shape=image;html=1;verticalAlign=top;verticalLabelPosition=bottom;labelBackgroundColor=#ffffff;imageAspect=0;aspect=fixed;image=https://cdn1.iconfinder.com/data/icons/ionicons-outline-vol-2/512/qr-code-outline-128.png;sketch=1;hachureGap=4;jiggle=2;curveFitting=1;fontFamily=Architects Daughter;fontSource=https%3A%2F%2Ffonts.googleapis.com%2Fcss%3Ffamily%3DArchitects%2BDaughter;fontSize=20;" parent="1" vertex="1">
          <mxGeometry x="680" y="-614" width="30" height="30" as="geometry" />
        </mxCell>
        <mxCell id="wFDD2Cs2IcHjFSPmou3Z-9" value="" style="strokeWidth=2;html=1;shape=mxgraph.flowchart.database;whiteSpace=wrap;sketch=1;hachureGap=4;jiggle=2;curveFitting=1;fontFamily=Architects Daughter;fontSource=https%3A%2F%2Ffonts.googleapis.com%2Fcss%3Ffamily%3DArchitects%2BDaughter;fontSize=20;" parent="1" vertex="1">
          <mxGeometry x="1200" y="-698.75" width="89" height="90" as="geometry" />
        </mxCell>
        <mxCell id="NAgrqLkLabYZdkxUAp8f-3" style="edgeStyle=orthogonalEdgeStyle;rounded=0;sketch=1;hachureGap=4;jiggle=2;curveFitting=1;orthogonalLoop=1;jettySize=auto;html=1;exitX=1;exitY=0;exitDx=0;exitDy=0;entryX=0;entryY=0.5;entryDx=0;entryDy=0;fontFamily=Architects Daughter;fontSource=https%3A%2F%2Ffonts.googleapis.com%2Fcss%3Ffamily%3DArchitects%2BDaughter;fontSize=16;curved=1;" edge="1" parent="1" source="wFDD2Cs2IcHjFSPmou3Z-13" target="wFDD2Cs2IcHjFSPmou3Z-52">
          <mxGeometry relative="1" as="geometry" />
        </mxCell>
        <mxCell id="NAgrqLkLabYZdkxUAp8f-4" style="edgeStyle=orthogonalEdgeStyle;rounded=0;sketch=1;hachureGap=4;jiggle=2;curveFitting=1;orthogonalLoop=1;jettySize=auto;html=1;exitX=1;exitY=0.5;exitDx=0;exitDy=0;fontFamily=Architects Daughter;fontSource=https%3A%2F%2Ffonts.googleapis.com%2Fcss%3Ffamily%3DArchitects%2BDaughter;fontSize=16;curved=1;" edge="1" parent="1" source="wFDD2Cs2IcHjFSPmou3Z-13" target="wFDD2Cs2IcHjFSPmou3Z-62">
          <mxGeometry relative="1" as="geometry" />
        </mxCell>
        <mxCell id="NAgrqLkLabYZdkxUAp8f-5" style="edgeStyle=orthogonalEdgeStyle;rounded=0;sketch=1;hachureGap=4;jiggle=2;curveFitting=1;orthogonalLoop=1;jettySize=auto;html=1;exitX=1;exitY=1;exitDx=0;exitDy=0;fontFamily=Architects Daughter;fontSource=https%3A%2F%2Ffonts.googleapis.com%2Fcss%3Ffamily%3DArchitects%2BDaughter;fontSize=16;curved=1;" edge="1" parent="1" source="wFDD2Cs2IcHjFSPmou3Z-13" target="wFDD2Cs2IcHjFSPmou3Z-9">
          <mxGeometry relative="1" as="geometry" />
        </mxCell>
        <mxCell id="wFDD2Cs2IcHjFSPmou3Z-13" value="" style="shape=mxgraph.gcp2.doubleRect;strokeColor=#dddddd;shadow=1;strokeWidth=1;rounded=1;absoluteArcSize=1;arcSize=2;sketch=1;hachureGap=4;jiggle=2;curveFitting=1;fontFamily=Architects Daughter;fontSource=https%3A%2F%2Ffonts.googleapis.com%2Fcss%3Ffamily%3DArchitects%2BDaughter;fontSize=20;" parent="1" vertex="1">
          <mxGeometry x="860" y="-990" width="229" height="70" as="geometry" />
        </mxCell>
        <mxCell id="wFDD2Cs2IcHjFSPmou3Z-14" value="&lt;font color=&quot;#000000&quot;&gt;Photo Collector &lt;br&gt;Service&lt;/font&gt;" style="editableCssRules=.*;html=1;fontColor=#999999;shape=image;verticalLabelPosition=middle;verticalAlign=middle;labelPosition=right;align=left;spacingLeft=20;part=1;points=[];imageAspect=0;image=data:image/svg+xml,PHN2ZyB4bWxucz0iaHR0cDovL3d3dy53My5vcmcvMjAwMC9zdmciIHhtbG5zOnY9Imh0dHBzOi8vdmVjdGEuaW8vbmFubyIgd2lkdGg9IjIwIiBoZWlnaHQ9IjE2IiB2aWV3Qm94PSIwIDAgMjAgMTYiPiYjeGE7CTxzdHlsZSB0eXBlPSJ0ZXh0L2NzcyI+JiN4YTsJLnN0MHtmaWxsOiM2NjlkZjY7fSYjeGE7CS5zdDF7ZmlsbDojNDI4NWY0O30mI3hhOwkuc3Qye2ZpbGw6I2FlY2JmYTt9JiN4YTsJPC9zdHlsZT4mI3hhOwk8cGF0aCBjbGFzcz0ic3QwIiBkPSJNMTUgMmgzdjEyaC0zdjJoMyAydi0yVjIgMGgtMi0zeiIvPiYjeGE7CTxwYXRoIGNsYXNzPSJzdDEiIGQ9Ik0xOCAydjFsMi0xem0yIDEydi0xbC0yIDF6Ii8+JiN4YTsJPHBhdGggY2xhc3M9InN0MCIgZD0iTTUgMTRIMlYyaDNWMEgyIDB2MiAxMiAyaDIgM3oiLz4mI3hhOwk8cGF0aCBjbGFzcz0ic3QxIiBkPSJNMCAxNHYtMWwyIDF6TTIgMnYxTDAgMnoiLz4mI3hhOwk8cGF0aCBjbGFzcz0ic3QyIiBkPSJNNSA3aDEwdjJINXptMCAzaDEwdjJINXptMC02aDEwdjJINXoiLz4mI3hhOzwvc3ZnPg==;sketch=1;hachureGap=4;jiggle=2;curveFitting=1;fontFamily=Architects Daughter;fontSource=https%3A%2F%2Ffonts.googleapis.com%2Fcss%3Ffamily%3DArchitects%2BDaughter;fontSize=20;" parent="wFDD2Cs2IcHjFSPmou3Z-13" vertex="1">
          <mxGeometry width="30" height="24" relative="1" as="geometry">
            <mxPoint x="15" y="18" as="offset" />
          </mxGeometry>
        </mxCell>
        <mxCell id="wFDD2Cs2IcHjFSPmou3Z-15" value="" style="shape=image;html=1;verticalAlign=top;verticalLabelPosition=bottom;labelBackgroundColor=#ffffff;imageAspect=0;aspect=fixed;image=https://cdn4.iconfinder.com/data/icons/essentials-72/24/006_-_Image-128.png;sketch=1;hachureGap=4;jiggle=2;curveFitting=1;fontFamily=Architects Daughter;fontSource=https%3A%2F%2Ffonts.googleapis.com%2Fcss%3Ffamily%3DArchitects%2BDaughter;fontSize=20;" parent="wFDD2Cs2IcHjFSPmou3Z-13" vertex="1">
          <mxGeometry x="10" y="10" width="40" height="40" as="geometry" />
        </mxCell>
        <mxCell id="wFDD2Cs2IcHjFSPmou3Z-83" style="edgeStyle=orthogonalEdgeStyle;sketch=1;hachureGap=4;jiggle=2;curveFitting=1;orthogonalLoop=1;jettySize=auto;html=1;exitX=0.5;exitY=1;exitDx=0;exitDy=0;entryX=0.5;entryY=1;entryDx=0;entryDy=0;fontFamily=Architects Daughter;fontSource=https%3A%2F%2Ffonts.googleapis.com%2Fcss%3Ffamily%3DArchitects%2BDaughter;fontSize=16;endSize=10;" parent="1" source="wFDD2Cs2IcHjFSPmou3Z-20" target="wFDD2Cs2IcHjFSPmou3Z-60" edge="1">
          <mxGeometry relative="1" as="geometry">
            <Array as="points">
              <mxPoint x="954" y="-540" />
              <mxPoint x="590" y="-540" />
            </Array>
          </mxGeometry>
        </mxCell>
        <mxCell id="wFDD2Cs2IcHjFSPmou3Z-20" value="" style="shape=mxgraph.gcp2.doubleRect;strokeColor=#dddddd;shadow=1;strokeWidth=1;rounded=1;absoluteArcSize=1;arcSize=2;sketch=1;hachureGap=4;jiggle=2;curveFitting=1;fontFamily=Architects Daughter;fontSource=https%3A%2F%2Ffonts.googleapis.com%2Fcss%3Ffamily%3DArchitects%2BDaughter;fontSize=20;" parent="1" vertex="1">
          <mxGeometry x="839" y="-685" width="229" height="70" as="geometry" />
        </mxCell>
        <mxCell id="wFDD2Cs2IcHjFSPmou3Z-21" value="&lt;font color=&quot;#000000&quot;&gt;Gallery Service&lt;/font&gt;" style="editableCssRules=.*;html=1;fontColor=#999999;shape=image;verticalLabelPosition=middle;verticalAlign=middle;labelPosition=right;align=left;spacingLeft=20;part=1;points=[];imageAspect=0;image=data:image/svg+xml,PHN2ZyB4bWxucz0iaHR0cDovL3d3dy53My5vcmcvMjAwMC9zdmciIHhtbG5zOnY9Imh0dHBzOi8vdmVjdGEuaW8vbmFubyIgd2lkdGg9IjIwIiBoZWlnaHQ9IjE2IiB2aWV3Qm94PSIwIDAgMjAgMTYiPiYjeGE7CTxzdHlsZSB0eXBlPSJ0ZXh0L2NzcyI+JiN4YTsJLnN0MHtmaWxsOiM2NjlkZjY7fSYjeGE7CS5zdDF7ZmlsbDojNDI4NWY0O30mI3hhOwkuc3Qye2ZpbGw6I2FlY2JmYTt9JiN4YTsJPC9zdHlsZT4mI3hhOwk8cGF0aCBjbGFzcz0ic3QwIiBkPSJNMTUgMmgzdjEyaC0zdjJoMyAydi0yVjIgMGgtMi0zeiIvPiYjeGE7CTxwYXRoIGNsYXNzPSJzdDEiIGQ9Ik0xOCAydjFsMi0xem0yIDEydi0xbC0yIDF6Ii8+JiN4YTsJPHBhdGggY2xhc3M9InN0MCIgZD0iTTUgMTRIMlYyaDNWMEgyIDB2MiAxMiAyaDIgM3oiLz4mI3hhOwk8cGF0aCBjbGFzcz0ic3QxIiBkPSJNMCAxNHYtMWwyIDF6TTIgMnYxTDAgMnoiLz4mI3hhOwk8cGF0aCBjbGFzcz0ic3QyIiBkPSJNNSA3aDEwdjJINXptMCAzaDEwdjJINXptMC02aDEwdjJINXoiLz4mI3hhOzwvc3ZnPg==;sketch=1;hachureGap=4;jiggle=2;curveFitting=1;fontFamily=Architects Daughter;fontSource=https%3A%2F%2Ffonts.googleapis.com%2Fcss%3Ffamily%3DArchitects%2BDaughter;fontSize=20;" parent="wFDD2Cs2IcHjFSPmou3Z-20" vertex="1">
          <mxGeometry width="30" height="24" relative="1" as="geometry">
            <mxPoint x="15" y="18" as="offset" />
          </mxGeometry>
        </mxCell>
        <mxCell id="wFDD2Cs2IcHjFSPmou3Z-39" value="" style="whiteSpace=wrap;html=1;aspect=fixed;sketch=1;hachureGap=4;jiggle=2;curveFitting=1;fontFamily=Architects Daughter;fontSource=https%3A%2F%2Ffonts.googleapis.com%2Fcss%3Ffamily%3DArchitects%2BDaughter;fontSize=20;strokeColor=none;" parent="wFDD2Cs2IcHjFSPmou3Z-20" vertex="1">
          <mxGeometry x="10" y="12" width="38" height="38" as="geometry" />
        </mxCell>
        <mxCell id="wFDD2Cs2IcHjFSPmou3Z-22" value="" style="shape=image;html=1;verticalAlign=top;verticalLabelPosition=bottom;labelBackgroundColor=#ffffff;imageAspect=0;aspect=fixed;image=https://cdn4.iconfinder.com/data/icons/essentials-72/24/006_-_Image-128.png;sketch=1;hachureGap=4;jiggle=2;curveFitting=1;fontFamily=Architects Daughter;fontSource=https%3A%2F%2Ffonts.googleapis.com%2Fcss%3Ffamily%3DArchitects%2BDaughter;fontSize=20;" parent="wFDD2Cs2IcHjFSPmou3Z-20" vertex="1">
          <mxGeometry x="10" y="12" width="20" height="20" as="geometry" />
        </mxCell>
        <mxCell id="wFDD2Cs2IcHjFSPmou3Z-37" value="" style="shape=image;html=1;verticalAlign=top;verticalLabelPosition=bottom;labelBackgroundColor=#ffffff;imageAspect=0;aspect=fixed;image=https://cdn4.iconfinder.com/data/icons/essentials-72/24/006_-_Image-128.png;sketch=1;hachureGap=4;jiggle=2;curveFitting=1;fontFamily=Architects Daughter;fontSource=https%3A%2F%2Ffonts.googleapis.com%2Fcss%3Ffamily%3DArchitects%2BDaughter;fontSize=20;" parent="wFDD2Cs2IcHjFSPmou3Z-20" vertex="1">
          <mxGeometry x="30" y="12" width="20" height="20" as="geometry" />
        </mxCell>
        <mxCell id="wFDD2Cs2IcHjFSPmou3Z-36" value="" style="shape=image;html=1;verticalAlign=top;verticalLabelPosition=bottom;labelBackgroundColor=#ffffff;imageAspect=0;aspect=fixed;image=https://cdn4.iconfinder.com/data/icons/essentials-72/24/006_-_Image-128.png;sketch=1;hachureGap=4;jiggle=2;curveFitting=1;fontFamily=Architects Daughter;fontSource=https%3A%2F%2Ffonts.googleapis.com%2Fcss%3Ffamily%3DArchitects%2BDaughter;fontSize=20;" parent="wFDD2Cs2IcHjFSPmou3Z-20" vertex="1">
          <mxGeometry x="10" y="32" width="20" height="20" as="geometry" />
        </mxCell>
        <mxCell id="wFDD2Cs2IcHjFSPmou3Z-38" value="" style="shape=image;html=1;verticalAlign=top;verticalLabelPosition=bottom;labelBackgroundColor=#ffffff;imageAspect=0;aspect=fixed;image=https://cdn4.iconfinder.com/data/icons/essentials-72/24/006_-_Image-128.png;sketch=1;hachureGap=4;jiggle=2;curveFitting=1;fontFamily=Architects Daughter;fontSource=https%3A%2F%2Ffonts.googleapis.com%2Fcss%3Ffamily%3DArchitects%2BDaughter;fontSize=20;" parent="wFDD2Cs2IcHjFSPmou3Z-20" vertex="1">
          <mxGeometry x="30" y="32" width="20" height="20" as="geometry" />
        </mxCell>
        <mxCell id="wFDD2Cs2IcHjFSPmou3Z-43" value="" style="shape=image;html=1;verticalAlign=top;verticalLabelPosition=bottom;labelBackgroundColor=#ffffff;imageAspect=0;aspect=fixed;image=https://cdn0.iconfinder.com/data/icons/forgen-seo-1/64/pictures-optimization-128.png;sketch=1;hachureGap=4;jiggle=2;curveFitting=1;fontFamily=Architects Daughter;fontSource=https%3A%2F%2Ffonts.googleapis.com%2Fcss%3Ffamily%3DArchitects%2BDaughter;fontSize=20;" parent="1" vertex="1">
          <mxGeometry x="548.75" y="-691.25" width="82.5" height="82.5" as="geometry" />
        </mxCell>
        <mxCell id="NAgrqLkLabYZdkxUAp8f-2" style="edgeStyle=orthogonalEdgeStyle;rounded=0;sketch=1;hachureGap=4;jiggle=2;curveFitting=1;orthogonalLoop=1;jettySize=auto;html=1;exitX=1;exitY=0.5;exitDx=0;exitDy=0;entryX=1;entryY=1;entryDx=0;entryDy=0;fontFamily=Architects Daughter;fontSource=https%3A%2F%2Ffonts.googleapis.com%2Fcss%3Ffamily%3DArchitects%2BDaughter;fontSize=16;curved=1;" edge="1" parent="1" source="wFDD2Cs2IcHjFSPmou3Z-52" target="wFDD2Cs2IcHjFSPmou3Z-20">
          <mxGeometry relative="1" as="geometry" />
        </mxCell>
        <mxCell id="wFDD2Cs2IcHjFSPmou3Z-52" value="" style="shape=mxgraph.gcp2.doubleRect;strokeColor=#dddddd;shadow=1;strokeWidth=1;rounded=1;absoluteArcSize=1;arcSize=2;sketch=1;hachureGap=4;jiggle=2;curveFitting=1;fontFamily=Architects Daughter;fontSource=https%3A%2F%2Ffonts.googleapis.com%2Fcss%3Ffamily%3DArchitects%2BDaughter;fontSize=20;rotation=90;" parent="1" vertex="1">
          <mxGeometry x="1400" y="-691.25" width="229" height="70" as="geometry" />
        </mxCell>
        <mxCell id="wFDD2Cs2IcHjFSPmou3Z-53" value="&lt;font color=&quot;#000000&quot;&gt;&amp;nbsp; Queue&lt;/font&gt;" style="editableCssRules=.*;html=1;fontColor=#999999;shape=image;verticalLabelPosition=middle;verticalAlign=middle;labelPosition=right;align=left;spacingLeft=20;part=1;points=[];imageAspect=0;image=data:image/svg+xml,PHN2ZyB4bWxucz0iaHR0cDovL3d3dy53My5vcmcvMjAwMC9zdmciIHhtbG5zOnY9Imh0dHBzOi8vdmVjdGEuaW8vbmFubyIgd2lkdGg9IjIwIiBoZWlnaHQ9IjE2IiB2aWV3Qm94PSIwIDAgMjAgMTYiPiYjeGE7CTxzdHlsZSB0eXBlPSJ0ZXh0L2NzcyI+JiN4YTsJLnN0MHtmaWxsOiM2NjlkZjY7fSYjeGE7CS5zdDF7ZmlsbDojNDI4NWY0O30mI3hhOwkuc3Qye2ZpbGw6I2FlY2JmYTt9JiN4YTsJPC9zdHlsZT4mI3hhOwk8cGF0aCBjbGFzcz0ic3QwIiBkPSJNMTUgMmgzdjEyaC0zdjJoMyAydi0yVjIgMGgtMi0zeiIvPiYjeGE7CTxwYXRoIGNsYXNzPSJzdDEiIGQ9Ik0xOCAydjFsMi0xem0yIDEydi0xbC0yIDF6Ii8+JiN4YTsJPHBhdGggY2xhc3M9InN0MCIgZD0iTTUgMTRIMlYyaDNWMEgyIDB2MiAxMiAyaDIgM3oiLz4mI3hhOwk8cGF0aCBjbGFzcz0ic3QxIiBkPSJNMCAxNHYtMWwyIDF6TTIgMnYxTDAgMnoiLz4mI3hhOwk8cGF0aCBjbGFzcz0ic3QyIiBkPSJNNSA3aDEwdjJINXptMCAzaDEwdjJINXptMC02aDEwdjJINXoiLz4mI3hhOzwvc3ZnPg==;sketch=1;hachureGap=4;jiggle=2;curveFitting=1;fontFamily=Architects Daughter;fontSource=https%3A%2F%2Ffonts.googleapis.com%2Fcss%3Ffamily%3DArchitects%2BDaughter;fontSize=20;rotation=90;" parent="wFDD2Cs2IcHjFSPmou3Z-52" vertex="1">
          <mxGeometry width="30" height="24" relative="1" as="geometry">
            <mxPoint x="15" y="18" as="offset" />
          </mxGeometry>
        </mxCell>
        <mxCell id="wFDD2Cs2IcHjFSPmou3Z-54" value="" style="whiteSpace=wrap;html=1;aspect=fixed;sketch=1;hachureGap=4;jiggle=2;curveFitting=1;fontFamily=Architects Daughter;fontSource=https%3A%2F%2Ffonts.googleapis.com%2Fcss%3Ffamily%3DArchitects%2BDaughter;fontSize=20;strokeColor=none;rotation=90;" parent="wFDD2Cs2IcHjFSPmou3Z-52" vertex="1">
          <mxGeometry x="95" y="-69" width="40" height="40" as="geometry" />
        </mxCell>
        <mxCell id="wFDD2Cs2IcHjFSPmou3Z-56" value="" style="shape=message;html=1;html=1;outlineConnect=0;labelPosition=center;verticalLabelPosition=bottom;align=center;verticalAlign=top;sketch=1;hachureGap=4;jiggle=2;curveFitting=1;fontFamily=Architects Daughter;fontSource=https%3A%2F%2Ffonts.googleapis.com%2Fcss%3Ffamily%3DArchitects%2BDaughter;fontSize=20;rotation=180;" parent="wFDD2Cs2IcHjFSPmou3Z-52" vertex="1">
          <mxGeometry x="96" y="-71" width="37.5" height="25" as="geometry" />
        </mxCell>
        <mxCell id="wFDD2Cs2IcHjFSPmou3Z-57" value="" style="shape=message;html=1;html=1;outlineConnect=0;labelPosition=center;verticalLabelPosition=bottom;align=center;verticalAlign=top;sketch=1;hachureGap=4;jiggle=2;curveFitting=1;fontFamily=Architects Daughter;fontSource=https%3A%2F%2Ffonts.googleapis.com%2Fcss%3Ffamily%3DArchitects%2BDaughter;fontSize=20;rotation=180;" parent="wFDD2Cs2IcHjFSPmou3Z-52" vertex="1">
          <mxGeometry x="96" y="107" width="37.5" height="25" as="geometry" />
        </mxCell>
        <mxCell id="wFDD2Cs2IcHjFSPmou3Z-58" value="" style="shape=message;html=1;html=1;outlineConnect=0;labelPosition=center;verticalLabelPosition=bottom;align=center;verticalAlign=top;sketch=1;hachureGap=4;jiggle=2;curveFitting=1;fontFamily=Architects Daughter;fontSource=https%3A%2F%2Ffonts.googleapis.com%2Fcss%3Ffamily%3DArchitects%2BDaughter;fontSize=20;rotation=180;" parent="wFDD2Cs2IcHjFSPmou3Z-52" vertex="1">
          <mxGeometry x="96" y="69" width="37.5" height="25" as="geometry" />
        </mxCell>
        <mxCell id="wFDD2Cs2IcHjFSPmou3Z-59" value="" style="shape=message;html=1;html=1;outlineConnect=0;labelPosition=center;verticalLabelPosition=bottom;align=center;verticalAlign=top;sketch=1;hachureGap=4;jiggle=2;curveFitting=1;fontFamily=Architects Daughter;fontSource=https%3A%2F%2Ffonts.googleapis.com%2Fcss%3Ffamily%3DArchitects%2BDaughter;fontSize=20;rotation=180;" parent="wFDD2Cs2IcHjFSPmou3Z-52" vertex="1">
          <mxGeometry x="96" y="-33" width="37.5" height="25" as="geometry" />
        </mxCell>
        <mxCell id="wFDD2Cs2IcHjFSPmou3Z-60" value="Gallery UI" style="text;html=1;strokeColor=none;fillColor=none;align=center;verticalAlign=middle;whiteSpace=wrap;rounded=0;fontSize=20;fontFamily=Architects Daughter;" parent="1" vertex="1">
          <mxGeometry x="520" y="-607.5" width="140" height="30" as="geometry" />
        </mxCell>
        <mxCell id="wFDD2Cs2IcHjFSPmou3Z-61" value="Db &lt;br&gt;Storage" style="text;html=1;strokeColor=none;fillColor=none;align=center;verticalAlign=middle;whiteSpace=wrap;rounded=0;fontSize=20;fontFamily=Architects Daughter;" parent="1" vertex="1">
          <mxGeometry x="1174.5" y="-657.5" width="140" height="30" as="geometry" />
        </mxCell>
        <mxCell id="wFDD2Cs2IcHjFSPmou3Z-62" value="" style="strokeWidth=2;html=1;shape=mxgraph.flowchart.database;whiteSpace=wrap;sketch=1;hachureGap=4;jiggle=2;curveFitting=1;fontFamily=Architects Daughter;fontSource=https%3A%2F%2Ffonts.googleapis.com%2Fcss%3Ffamily%3DArchitects%2BDaughter;fontSize=20;" parent="1" vertex="1">
          <mxGeometry x="1310" y="-697.5" width="90" height="90" as="geometry" />
        </mxCell>
        <mxCell id="wFDD2Cs2IcHjFSPmou3Z-63" value="Blob &lt;br&gt;Storage" style="text;html=1;strokeColor=none;fillColor=none;align=center;verticalAlign=middle;whiteSpace=wrap;rounded=0;fontSize=20;fontFamily=Architects Daughter;" parent="1" vertex="1">
          <mxGeometry x="1285" y="-657.5" width="140" height="30" as="geometry" />
        </mxCell>
        <mxCell id="wFDD2Cs2IcHjFSPmou3Z-77" style="edgeStyle=orthogonalEdgeStyle;sketch=1;hachureGap=4;jiggle=2;curveFitting=1;orthogonalLoop=1;jettySize=auto;html=1;exitX=1;exitY=0.5;exitDx=0;exitDy=0;fontFamily=Architects Daughter;fontSource=https%3A%2F%2Ffonts.googleapis.com%2Fcss%3Ffamily%3DArchitects%2BDaughter;fontSize=16;" parent="1" source="wFDD2Cs2IcHjFSPmou3Z-65" target="wFDD2Cs2IcHjFSPmou3Z-13" edge="1">
          <mxGeometry relative="1" as="geometry" />
        </mxCell>
        <mxCell id="wFDD2Cs2IcHjFSPmou3Z-65" value="" style="rounded=1;whiteSpace=wrap;html=1;sketch=1;hachureGap=4;jiggle=2;curveFitting=1;fontFamily=Architects Daughter;fontSource=https%3A%2F%2Ffonts.googleapis.com%2Fcss%3Ffamily%3DArchitects%2BDaughter;fontSize=20;" parent="1" vertex="1">
          <mxGeometry x="460" y="-1020" width="260" height="130" as="geometry" />
        </mxCell>
        <mxCell id="wFDD2Cs2IcHjFSPmou3Z-66" value="Photo Collector UI" style="text;html=1;strokeColor=none;fillColor=none;align=center;verticalAlign=middle;whiteSpace=wrap;rounded=0;fontSize=20;fontFamily=Architects Daughter;" parent="1" vertex="1">
          <mxGeometry x="500" y="-920" width="180" height="30" as="geometry" />
        </mxCell>
        <mxCell id="wFDD2Cs2IcHjFSPmou3Z-67" value="Upload your cool photo" style="fillColor=none;strokeColor=none;align=left;fontSize=14;sketch=1;hachureGap=4;jiggle=2;curveFitting=1;fontFamily=Architects Daughter;fontSource=https%3A%2F%2Ffonts.googleapis.com%2Fcss%3Ffamily%3DArchitects%2BDaughter;" parent="1" vertex="1">
          <mxGeometry x="510" y="-1000" width="160" height="40" as="geometry" />
        </mxCell>
        <mxCell id="wFDD2Cs2IcHjFSPmou3Z-68" value="Choose File" style="fillColor=#FEFEFE;strokeColor=#AAAAAA;fontSize=14;gradientColor=#F0F0F0;sketch=1;hachureGap=4;jiggle=2;curveFitting=1;fontFamily=Architects Daughter;fontSource=https%3A%2F%2Ffonts.googleapis.com%2Fcss%3Ffamily%3DArchitects%2BDaughter;" parent="1" vertex="1">
          <mxGeometry x="540" y="-960" width="90" height="30" as="geometry" />
        </mxCell>
        <mxCell id="wFDD2Cs2IcHjFSPmou3Z-72" value="" style="endArrow=classic;html=1;sketch=1;hachureGap=4;jiggle=2;curveFitting=1;fontFamily=Architects Daughter;fontSource=https%3A%2F%2Ffonts.googleapis.com%2Fcss%3Ffamily%3DArchitects%2BDaughter;fontSize=16;entryX=0;entryY=0.5;entryDx=0;entryDy=0;exitX=0.5;exitY=0;exitDx=0;exitDy=0;exitPerimeter=0;endSize=10;" parent="1" source="wFDD2Cs2IcHjFSPmou3Z-1" target="wFDD2Cs2IcHjFSPmou3Z-65" edge="1">
          <mxGeometry width="50" height="50" relative="1" as="geometry">
            <mxPoint x="840" y="-910" as="sourcePoint" />
            <mxPoint x="890" y="-960" as="targetPoint" />
          </mxGeometry>
        </mxCell>
        <mxCell id="NAgrqLkLabYZdkxUAp8f-6" value="&lt;b&gt;&lt;font style=&quot;font-size: 25px;&quot;&gt;1&lt;/font&gt;&lt;/b&gt;" style="text;html=1;strokeColor=none;fillColor=none;align=center;verticalAlign=middle;whiteSpace=wrap;rounded=0;fontFamily=Architects Daughter;fontSource=https%3A%2F%2Ffonts.googleapis.com%2Fcss%3Ffamily%3DArchitects%2BDaughter;fontSize=20;" vertex="1" parent="1">
          <mxGeometry x="320" y="-671.25" width="60" height="30" as="geometry" />
        </mxCell>
        <mxCell id="NAgrqLkLabYZdkxUAp8f-7" value="" style="ellipse;whiteSpace=wrap;html=1;aspect=fixed;sketch=1;hachureGap=4;jiggle=2;curveFitting=1;fontFamily=Architects Daughter;fontSource=https%3A%2F%2Ffonts.googleapis.com%2Fcss%3Ffamily%3DArchitects%2BDaughter;fontSize=20;" vertex="1" parent="1">
          <mxGeometry x="329.38" y="-676.87" width="41.25" height="41.25" as="geometry" />
        </mxCell>
        <mxCell id="NAgrqLkLabYZdkxUAp8f-8" value="&lt;b&gt;&lt;font style=&quot;font-size: 25px;&quot;&gt;1&lt;/font&gt;&lt;/b&gt;" style="text;html=1;strokeColor=none;fillColor=none;align=center;verticalAlign=middle;whiteSpace=wrap;rounded=0;fontFamily=Architects Daughter;fontSource=https%3A%2F%2Ffonts.googleapis.com%2Fcss%3Ffamily%3DArchitects%2BDaughter;fontSize=20;" vertex="1" parent="1">
          <mxGeometry x="320.01" y="-671.25" width="60" height="30" as="geometry" />
        </mxCell>
        <mxCell id="NAgrqLkLabYZdkxUAp8f-9" value="&lt;b&gt;&lt;font style=&quot;font-size: 25px;&quot;&gt;1&lt;/font&gt;&lt;/b&gt;" style="text;html=1;strokeColor=none;fillColor=none;align=center;verticalAlign=middle;whiteSpace=wrap;rounded=0;fontFamily=Architects Daughter;fontSource=https%3A%2F%2Ffonts.googleapis.com%2Fcss%3Ffamily%3DArchitects%2BDaughter;fontSize=20;" vertex="1" parent="1">
          <mxGeometry x="280" y="-854.38" width="60" height="30" as="geometry" />
        </mxCell>
        <mxCell id="NAgrqLkLabYZdkxUAp8f-10" value="" style="ellipse;whiteSpace=wrap;html=1;aspect=fixed;sketch=1;hachureGap=4;jiggle=2;curveFitting=1;fontFamily=Architects Daughter;fontSource=https%3A%2F%2Ffonts.googleapis.com%2Fcss%3Ffamily%3DArchitects%2BDaughter;fontSize=20;" vertex="1" parent="1">
          <mxGeometry x="289.38" y="-860" width="41.25" height="41.25" as="geometry" />
        </mxCell>
        <mxCell id="NAgrqLkLabYZdkxUAp8f-11" value="&lt;b&gt;&lt;font style=&quot;font-size: 25px;&quot;&gt;2&lt;/font&gt;&lt;/b&gt;" style="text;html=1;strokeColor=none;fillColor=none;align=center;verticalAlign=middle;whiteSpace=wrap;rounded=0;fontFamily=Architects Daughter;fontSource=https%3A%2F%2Ffonts.googleapis.com%2Fcss%3Ffamily%3DArchitects%2BDaughter;fontSize=20;" vertex="1" parent="1">
          <mxGeometry x="280.01" y="-854.38" width="60" height="30" as="geometry" />
        </mxCell>
        <mxCell id="NAgrqLkLabYZdkxUAp8f-12" value="&lt;b&gt;&lt;font style=&quot;font-size: 25px;&quot;&gt;1&lt;/font&gt;&lt;/b&gt;" style="text;html=1;strokeColor=none;fillColor=none;align=center;verticalAlign=middle;whiteSpace=wrap;rounded=0;fontFamily=Architects Daughter;fontSource=https%3A%2F%2Ffonts.googleapis.com%2Fcss%3Ffamily%3DArchitects%2BDaughter;fontSize=20;" vertex="1" parent="1">
          <mxGeometry x="767" y="-1014.38" width="60" height="30" as="geometry" />
        </mxCell>
        <mxCell id="NAgrqLkLabYZdkxUAp8f-13" value="" style="ellipse;whiteSpace=wrap;html=1;aspect=fixed;sketch=1;hachureGap=4;jiggle=2;curveFitting=1;fontFamily=Architects Daughter;fontSource=https%3A%2F%2Ffonts.googleapis.com%2Fcss%3Ffamily%3DArchitects%2BDaughter;fontSize=20;" vertex="1" parent="1">
          <mxGeometry x="776.38" y="-1020" width="41.25" height="41.25" as="geometry" />
        </mxCell>
        <mxCell id="NAgrqLkLabYZdkxUAp8f-14" value="&lt;b&gt;&lt;font style=&quot;font-size: 25px;&quot;&gt;3&lt;/font&gt;&lt;/b&gt;" style="text;html=1;strokeColor=none;fillColor=none;align=center;verticalAlign=middle;whiteSpace=wrap;rounded=0;fontFamily=Architects Daughter;fontSource=https%3A%2F%2Ffonts.googleapis.com%2Fcss%3Ffamily%3DArchitects%2BDaughter;fontSize=20;" vertex="1" parent="1">
          <mxGeometry x="767.01" y="-1014.38" width="60" height="30" as="geometry" />
        </mxCell>
        <mxCell id="NAgrqLkLabYZdkxUAp8f-19" value="&lt;b&gt;&lt;font style=&quot;font-size: 25px;&quot;&gt;1&lt;/font&gt;&lt;/b&gt;" style="text;html=1;strokeColor=none;fillColor=none;align=center;verticalAlign=middle;whiteSpace=wrap;rounded=0;fontFamily=Architects Daughter;fontSource=https%3A%2F%2Ffonts.googleapis.com%2Fcss%3Ffamily%3DArchitects%2BDaughter;fontSize=20;" vertex="1" parent="1">
          <mxGeometry x="1300" y="-895.63" width="60" height="30" as="geometry" />
        </mxCell>
        <mxCell id="NAgrqLkLabYZdkxUAp8f-20" value="" style="ellipse;whiteSpace=wrap;html=1;aspect=fixed;sketch=1;hachureGap=4;jiggle=2;curveFitting=1;fontFamily=Architects Daughter;fontSource=https%3A%2F%2Ffonts.googleapis.com%2Fcss%3Ffamily%3DArchitects%2BDaughter;fontSize=20;" vertex="1" parent="1">
          <mxGeometry x="1309.38" y="-901.25" width="41.25" height="41.25" as="geometry" />
        </mxCell>
        <mxCell id="NAgrqLkLabYZdkxUAp8f-21" value="&lt;b&gt;&lt;font style=&quot;font-size: 25px;&quot;&gt;4&lt;/font&gt;&lt;/b&gt;" style="text;html=1;strokeColor=none;fillColor=none;align=center;verticalAlign=middle;whiteSpace=wrap;rounded=0;fontFamily=Architects Daughter;fontSource=https%3A%2F%2Ffonts.googleapis.com%2Fcss%3Ffamily%3DArchitects%2BDaughter;fontSize=20;" vertex="1" parent="1">
          <mxGeometry x="1300.01" y="-895.63" width="60" height="30" as="geometry" />
        </mxCell>
        <mxCell id="NAgrqLkLabYZdkxUAp8f-22" value="&lt;b&gt;&lt;font style=&quot;font-size: 25px;&quot;&gt;1&lt;/font&gt;&lt;/b&gt;" style="text;html=1;strokeColor=none;fillColor=none;align=center;verticalAlign=middle;whiteSpace=wrap;rounded=0;fontFamily=Architects Daughter;fontSource=https%3A%2F%2Ffonts.googleapis.com%2Fcss%3Ffamily%3DArchitects%2BDaughter;fontSize=20;" vertex="1" parent="1">
          <mxGeometry x="1150" y="-848.76" width="60" height="30" as="geometry" />
        </mxCell>
        <mxCell id="NAgrqLkLabYZdkxUAp8f-23" value="" style="ellipse;whiteSpace=wrap;html=1;aspect=fixed;sketch=1;hachureGap=4;jiggle=2;curveFitting=1;fontFamily=Architects Daughter;fontSource=https%3A%2F%2Ffonts.googleapis.com%2Fcss%3Ffamily%3DArchitects%2BDaughter;fontSize=20;" vertex="1" parent="1">
          <mxGeometry x="1159.38" y="-854.38" width="41.25" height="41.25" as="geometry" />
        </mxCell>
        <mxCell id="NAgrqLkLabYZdkxUAp8f-24" value="&lt;b&gt;&lt;font style=&quot;font-size: 25px;&quot;&gt;5&lt;/font&gt;&lt;/b&gt;" style="text;html=1;strokeColor=none;fillColor=none;align=center;verticalAlign=middle;whiteSpace=wrap;rounded=0;fontFamily=Architects Daughter;fontSource=https%3A%2F%2Ffonts.googleapis.com%2Fcss%3Ffamily%3DArchitects%2BDaughter;fontSize=20;" vertex="1" parent="1">
          <mxGeometry x="1150.01" y="-848.76" width="60" height="30" as="geometry" />
        </mxCell>
        <mxCell id="NAgrqLkLabYZdkxUAp8f-25" value="&lt;b&gt;&lt;font style=&quot;font-size: 25px;&quot;&gt;1&lt;/font&gt;&lt;/b&gt;" style="text;html=1;strokeColor=none;fillColor=none;align=center;verticalAlign=middle;whiteSpace=wrap;rounded=0;fontFamily=Architects Daughter;fontSource=https%3A%2F%2Ffonts.googleapis.com%2Fcss%3Ffamily%3DArchitects%2BDaughter;fontSize=20;" vertex="1" parent="1">
          <mxGeometry x="1310" y="-1050.01" width="60" height="30" as="geometry" />
        </mxCell>
        <mxCell id="NAgrqLkLabYZdkxUAp8f-26" value="" style="ellipse;whiteSpace=wrap;html=1;aspect=fixed;sketch=1;hachureGap=4;jiggle=2;curveFitting=1;fontFamily=Architects Daughter;fontSource=https%3A%2F%2Ffonts.googleapis.com%2Fcss%3Ffamily%3DArchitects%2BDaughter;fontSize=20;" vertex="1" parent="1">
          <mxGeometry x="1319.38" y="-1055.63" width="41.25" height="41.25" as="geometry" />
        </mxCell>
        <mxCell id="NAgrqLkLabYZdkxUAp8f-27" value="&lt;b&gt;&lt;font style=&quot;font-size: 25px;&quot;&gt;6&lt;/font&gt;&lt;/b&gt;" style="text;html=1;strokeColor=none;fillColor=none;align=center;verticalAlign=middle;whiteSpace=wrap;rounded=0;fontFamily=Architects Daughter;fontSource=https%3A%2F%2Ffonts.googleapis.com%2Fcss%3Ffamily%3DArchitects%2BDaughter;fontSize=20;" vertex="1" parent="1">
          <mxGeometry x="1310.01" y="-1050.01" width="60" height="30" as="geometry" />
        </mxCell>
        <mxCell id="NAgrqLkLabYZdkxUAp8f-28" value="&lt;b&gt;&lt;font style=&quot;font-size: 25px;&quot;&gt;1&lt;/font&gt;&lt;/b&gt;" style="text;html=1;strokeColor=none;fillColor=none;align=center;verticalAlign=middle;whiteSpace=wrap;rounded=0;fontFamily=Architects Daughter;fontSource=https%3A%2F%2Ffonts.googleapis.com%2Fcss%3Ffamily%3DArchitects%2BDaughter;fontSize=20;" vertex="1" parent="1">
          <mxGeometry x="1270" y="-504.38" width="60" height="30" as="geometry" />
        </mxCell>
        <mxCell id="NAgrqLkLabYZdkxUAp8f-29" value="" style="ellipse;whiteSpace=wrap;html=1;aspect=fixed;sketch=1;hachureGap=4;jiggle=2;curveFitting=1;fontFamily=Architects Daughter;fontSource=https%3A%2F%2Ffonts.googleapis.com%2Fcss%3Ffamily%3DArchitects%2BDaughter;fontSize=20;" vertex="1" parent="1">
          <mxGeometry x="1279.38" y="-510" width="41.25" height="41.25" as="geometry" />
        </mxCell>
        <mxCell id="NAgrqLkLabYZdkxUAp8f-30" value="&lt;b&gt;&lt;font style=&quot;font-size: 25px;&quot;&gt;7&lt;/font&gt;&lt;/b&gt;" style="text;html=1;strokeColor=none;fillColor=none;align=center;verticalAlign=middle;whiteSpace=wrap;rounded=0;fontFamily=Architects Daughter;fontSource=https%3A%2F%2Ffonts.googleapis.com%2Fcss%3Ffamily%3DArchitects%2BDaughter;fontSize=20;" vertex="1" parent="1">
          <mxGeometry x="1270.01" y="-504.38" width="60" height="30" as="geometry" />
        </mxCell>
        <mxCell id="NAgrqLkLabYZdkxUAp8f-31" value="&lt;b&gt;&lt;font style=&quot;font-size: 25px;&quot;&gt;1&lt;/font&gt;&lt;/b&gt;" style="text;html=1;strokeColor=none;fillColor=none;align=center;verticalAlign=middle;whiteSpace=wrap;rounded=0;fontFamily=Architects Daughter;fontSource=https%3A%2F%2Ffonts.googleapis.com%2Fcss%3Ffamily%3DArchitects%2BDaughter;fontSize=20;" vertex="1" parent="1">
          <mxGeometry x="750" y="-524.38" width="60" height="30" as="geometry" />
        </mxCell>
        <mxCell id="NAgrqLkLabYZdkxUAp8f-32" value="" style="ellipse;whiteSpace=wrap;html=1;aspect=fixed;sketch=1;hachureGap=4;jiggle=2;curveFitting=1;fontFamily=Architects Daughter;fontSource=https%3A%2F%2Ffonts.googleapis.com%2Fcss%3Ffamily%3DArchitects%2BDaughter;fontSize=20;" vertex="1" parent="1">
          <mxGeometry x="759.38" y="-530" width="41.25" height="41.25" as="geometry" />
        </mxCell>
        <mxCell id="NAgrqLkLabYZdkxUAp8f-33" value="&lt;b&gt;&lt;font style=&quot;font-size: 25px;&quot;&gt;8&lt;/font&gt;&lt;/b&gt;" style="text;html=1;strokeColor=none;fillColor=none;align=center;verticalAlign=middle;whiteSpace=wrap;rounded=0;fontFamily=Architects Daughter;fontSource=https%3A%2F%2Ffonts.googleapis.com%2Fcss%3Ffamily%3DArchitects%2BDaughter;fontSize=20;" vertex="1" parent="1">
          <mxGeometry x="750.01" y="-524.38" width="60" height="30" as="geometry" />
        </mxCell>
      </root>
    </mxGraphModel>
  </diagram>
</mxfile>
